<svg xmlns="http://www.w3.org/2000/svg" viewBox="0 0 465.57 67.92"><defs/><defs><clipPath id="clip-path"><path fill="none" d="M0 0h465.57v67.92H0z"/></clipPath><style>.cls-3 {
		fill: #004b9b;
	}
</style></defs><g clip-path="url(#clip-path)"><path d="M71 12.35H50.8c-1.29-1.69-4-3.24-7.56-4.63H71V0H0v7.72h7.74c18.25 0 31.62 5.17 39 9.92l-5.39 2.18C33 15.39 20.5 12.35 7.72 12.35H0v7.72h7.72a73 73 0 0123.58 3.82l-8.53 3.44a4.53 4.53 0 00-2.7 3.8v8.3a4.53 4.53 0 002.7 3.79L50.94 54.6v-8.32l-10.79-4.36 8.08-3.27a4.5 4.5 0 002.71-3.79v-7.61a4.88 4.88 0 01-2.71 3.08l-18.38 7.43-6.15-2.48 24.53-9.92a4.5 4.5 0 002.71-3.79v-1.5H71zM20.07 45.13v7.61a4.48 4.48 0 002.7 3.8l28.17 11.38V59.6L22.77 48.22a4.86 4.86 0 01-2.7-3.09" class="cls-3"/><path d="M196.19 20.07h8.22v27.41h-8.22zM110.32 20.07H84.56v7.13h8.77v20.27h8.22V27.2h8.77z"/><path d="M124.9 19.25a14.53 14.53 0 1014.53 14.53 14.52 14.52 0 00-14.53-14.53m0 22.75c-3.48 0-6.3-3.68-6.3-8.22s2.83-8.23 6.3-8.23 6.3 3.68 6.3 8.23-2.82 8.22-6.3 8.22M183.66 20.07h-7.07L166.3 45.52l-7.93-13.32 7.88-12.13h-8.5l-8 12.36V20.07h-8.22v27.4h8.22v-15l5.6 10.1a9.58 9.58 0 008.4 4.93h10.06l6.33-17.59 6.34 17.59h8.27zM340.05 26.09v-6h-23.58v27.38h23.58v-6H324.7v-4.69H338v-6h-13.3v-4.69zM400.06 20.06h8.22v27.41h-8.22zM368.44 43.36v-2.3a7.53 7.53 0 00-4-6.33c2.85-1.41 4.75-3.89 4.75-6.73 0-4.39-4.54-7.95-10.14-7.95h-15.22v27.42h8.22v-9.32h6c1.21 0 2.19 1.35 2.19 3v2.2c0 2.26.37 4.11.82 4.11h8.22c-.45 0-.82-1.85-.82-4.11M361 29.11c0 1.66-1 3-2.19 3h-6.7v-6h6.7c1.21 0 2.19 1.35 2.19 3M379.77 39.46c0 1.4 2.24 2.54 4.66 2.54s4.66-1.14 4.66-2.54-1.46-2.19-4.77-2.53c-8.83-.92-13-4-13-8.84s5.92-8.84 12.88-8.84 12.88 3.95 12.88 8.84h-8.22c0-1.4-2.24-2.54-4.66-2.54s-4.66 1.14-4.66 2.54 1.46 2.19 4.77 2.53c8.82.92 13 4 13 8.84s-5.92 8.84-12.89 8.84-12.88-3.95-12.88-8.84zM437 20.06h-25.81v7.13H420v20.28h8.22V27.19H437zM304 47.47l11-27.41h-8.28l-6.34 17.6-6.33-17.6h-8.25l11.08 27.41H304zM465.57 20.06h-9.18l-5.13 10.09-5.12-10.09H437l10.2 17.44v10h8.21v-10zM271.08 20.06h-8.22v15.08c-1.77-3.37-3.4-6.46-4.12-7.74l-4.1-7.34h-8.22v27.41h8.22v-15.1c1.77 3.38 3.4 6.47 4.12 7.75 0 0 4.07 7.29 4.1 7.34h8.22zM276.13 20.07h8.22v27.41h-8.22zM217.39 39.46c0 4.88 5.52 8.84 12.33 8.84s12.34-4 12.34-8.84V20.07h-8.23v19.39c0 1.4-1.84 2.53-4.11 2.53s-4.11-1.13-4.11-2.53V20.07h-8.23z"/></g></svg>